<svg width="3737" height="2846" viewBox="0 0 3737 2846" fill="none" xmlns="http://www.w3.org/2000/svg">
<path d="M3737 1581.6C3737 1790.67 3638.56 1991.17 3463.34 2139C3288.12 2286.84 3050.46 2369.89 2802.66 2369.89H933.981C696.555 2369.81 468.068 2293.48 294.944 2156.4C121.819 2019.32 17.0431 1831.77 1.90296 1631.87C-13.2372 1431.96 62.3945 1234.69 213.432 1080.14C364.469 925.581 579.582 825.333 815.065 799.762C885.61 610.714 1025.78 445.574 1215.19 328.345C1404.61 211.116 1633.4 147.908 1868.32 147.908C2103.24 147.908 2332.03 211.116 2521.45 328.345C2710.86 445.574 2851.03 610.714 2921.58 799.762C3146.93 824.158 3354.02 916.994 3504.11 1060.9C3654.19 1204.8 3736.99 1389.92 3737 1581.6Z" fill="url(#paint0_linear_2528_2)"/>
<path fill-rule="evenodd" clip-rule="evenodd" d="M1912.31 1352.3L1670.8 1070.04L480.629 2845.08L1682.92 1522.03L1915.1 1800.27L3086.17 5.65594e-05L1912.31 1352.3Z" fill="url(#paint1_linear_2528_2)"/>
<defs>
<linearGradient id="paint0_linear_2528_2" x1="1868.32" y1="2369.89" x2="1868.32" y2="148.349" gradientUnits="userSpaceOnUse">
<stop stop-color="#D3E6F5"/>
<stop offset="1" stop-color="#F0F7FC"/>
</linearGradient>
<linearGradient id="paint1_linear_2528_2" x1="1746.18" y1="34.2757" x2="1817.21" y2="2810.89" gradientUnits="userSpaceOnUse">
<stop stop-color="#EB00FF"/>
<stop offset="0.516666" stop-color="#5600E3"/>
<stop offset="1" stop-color="#F300BE"/>
</linearGradient>
</defs>
</svg>
